<?xml version="1.0" encoding="utf-8"?>
<!-- Generator: Adobe Illustrator 25.4.1, SVG Export Plug-In . SVG Version: 6.00 Build 0)  -->
<svg version="1.1" id="Слой_1" xmlns="http://www.w3.org/2000/svg" xmlns:xlink="http://www.w3.org/1999/xlink" x="0px" y="0px"
	 viewBox="0 0 800 800" style="enable-background:new 0 0 800 800;" xml:space="preserve">
<style type="text/css">
	.st0{fill:#FFBA76;}
	.st1{fill:#FF8724;}
</style>
<g id="Layer_6">
	<path class="st0" d="M91,150l309,219.2L709,150c8.2-5.3,18.8-5.3,27,0c-17.5-15.3-39.8-24.1-63-25H127c-22.9,0.2-45.1,8.1-63,22.5
		C72.7,143,83.3,143.9,91,150z"/>
	<path class="st1" d="M739,150c1.8,1.3,3.4,2.9,4.8,4.8c8,11.2,5.4,26.7-5.8,34.8L414.5,420.2c-8.7,6.2-20.3,6.2-29,0L62,189.2
		c-11.1-8-13.7-23.6-5.8-34.8c1.3-1.7,2.9-3.3,4.8-4.5c-22.6,19.2-35.8,47.3-36,77v346c0,56.3,45.7,102,102,102l0,0h546
		c56.3,0,102-45.7,102-102l0,0V227C774.8,197.3,761.6,169.2,739,150z M344.5,470.2L91,651.2c-4.2,3.1-9.3,4.7-14.5,4.8
		c-8,0-15.6-3.9-20.2-10.5c-8-11.2-5.4-26.7,5.8-34.8l253.5-181c11.9-7,27.2-3.1,34.3,8.8C355.9,449,353.7,462.4,344.5,470.2
		L344.5,470.2z M744.5,645.2c-4.7,6.6-12.2,10.5-20.2,10.5c-5.2,0-10.3-1.7-14.5-4.8L455.5,470.2c-11.9-7-15.8-22.4-8.8-34.3
		c7-11.9,22.4-15.8,34.3-8.8c1.2,0.7,2.4,1.6,3.5,2.5l253.5,181c11.1,8,13.7,23.6,5.8,34.8L744.5,645.2z"/>
</g>
</svg>
