<?xml version="1.0" encoding="utf-8"?>
<!-- Generator: Adobe Illustrator 25.4.1, SVG Export Plug-In . SVG Version: 6.00 Build 0)  -->
<svg version="1.1" id="Слой_1" xmlns="http://www.w3.org/2000/svg" xmlns:xlink="http://www.w3.org/1999/xlink" x="0px" y="0px"
	 viewBox="0 0 800 800" style="enable-background:new 0 0 800 800;" xml:space="preserve">
<style type="text/css">
	.st0{fill:#FF8724;}
</style>
<g id="Layer_1">
</g>
<g id="Layer_2">
	<g>
		<path class="st0" d="M709.8,97.1c-98.4,40.8-520.5,215.6-637.1,263.2c-78.2,30.5-32.4,59.1-32.4,59.1s66.8,22.9,124,40.1
			c57.2,17.2,87.7-1.9,87.7-1.9l269-181.2c95.4-64.9,72.5-11.4,49.6,11.4c-49.6,49.6-131.6,127.8-200.3,190.8
			c-30.5,26.7-15.3,49.6-1.9,61c49.6,42,185,127.8,192.7,133.5c40.3,28.5,119.6,69.6,131.6-17.2l47.7-299.5
			c15.3-101.1,30.5-194.6,32.4-221.3C778.5,70.4,709.8,97.1,709.8,97.1z"/>
	</g>
</g>
</svg>
