<?xml version="1.0" encoding="utf-8"?>
<!-- Generator: Adobe Illustrator 25.4.1, SVG Export Plug-In . SVG Version: 6.00 Build 0)  -->
<svg version="1.1" id="Слой_1" xmlns="http://www.w3.org/2000/svg" xmlns:xlink="http://www.w3.org/1999/xlink" x="0px" y="0px"
	 viewBox="0 0 736 225" style="enable-background:new 0 0 736 225;" xml:space="preserve">
<style type="text/css">
	.st0{fill:#F4D2BA;}
	.st1{fill:#F2B58B;}
	.st2{fill:#F39F5C;}
	.st3{fill:#F39037;}
	.st4{fill:#010203;}
</style>
<path class="st0" d="M52.5,193.4c10.4-6.3,19.5-14.4,27.1-23.8l68.4-84.9c4.9-6.1-1.6-14.6-8.8-11.6L95.6,89.1
	c-7.3,3.1-12.3-3.7-7.2-9.8l61.3-72.6c3.2-3.8-1.4-9-5.6-6.5l0,0c-11.7,7.1-22.2,16.1-31,26.6L48,104c-5.1,6,1.4,14.8,8.7,11.7
	l42.8-14.4c7.2-3.1,13.1,2,8.2,8l-64.3,79.8c-3,3.8,1.5,8.9,5.6,6.4L52.5,193.4z"/>
<path class="st1" d="M42.8,200.2c10.4-6.3,19.5-14.4,27.1-23.8l68.4-84.9c4.9-6.1-1.6-14.6-8.8-11.6L85.9,96
	c-7.3,3.1-12.3-3.7-7.2-9.8L140,13.5c3.2-3.8-1.4-9-5.6-6.5l0,0c-11.7,7.1-22.2,16.1-31,26.6l-65.1,77.2c-5.1,6,1.4,14.8,8.7,11.7
	l42.8-14.4c7.2-3.1,13.1,2,8.2,8L33.6,196c-3,3.8,1.5,8.9,5.6,6.4L42.8,200.2z"/>
<path class="st2" d="M28.2,210c10.4-6.3,19.5-14.4,27.1-23.8l68.4-84.9c4.9-6.1-1.6-14.6-8.8-11.6l-43.7,16.1
	c-7.3,3.1-12.3-3.7-7.2-9.8l61.3-72.6c3.2-3.8-1.4-9-5.6-6.5l0,0c-11.7,7.1-22.2,16.1-31,26.6l-65.1,77.2c-5.1,6,1.4,14.8,8.7,11.7
	l42.8-14.4c7.2-3.1,13.1,2,8.2,8L19,205.7c-3,3.8,1.5,8.9,5.6,6.4L28.2,210z"/>
<path class="st3" d="M10.6,222.6c10.4-6.3,19.5-14.4,27.1-23.8l68.4-84.9c4.9-6.1-1.6-14.6-8.8-11.6l-43.7,16.1
	c-7.3,3.1-12.3-3.7-7.2-9.8l61.3-72.6c3.2-3.8-1.4-9-5.6-6.5l0,0c-11.7,7.1-22.2,16.1-31,26.6L6.2,133.2c-5.1,6,1.4,14.8,8.7,11.7
	l42.8-14.4c7.2-3.1,13.1,2,8.2,8L1.5,218.4c-3,3.8,1.5,8.9,5.6,6.4L10.6,222.6z"/>
<g>
	<path class="st4" d="M159.7,138.9v-10.6c0-2.2,1.8-4,4-4h52.2c0.5,0,0.9-0.4,0.9-0.9v-19c0-0.5-0.4-0.9-0.9-0.9h-38.7
		c-4.8,0-8.9-1.7-12.3-5.1c-3.4-3.4-5.1-7.5-5.1-12.3V61.4c0-4.9,1.7-9,5.1-12.5c3.4-3.4,7.5-5.1,12.3-5.1h54.2c2.2,0,4,1.8,4,4
		v10.6c0,2.2-1.8,4-4,4h-52.2c-0.5,0-0.9,0.4-0.9,0.9v20.5c0,0.5,0.4,0.9,0.9,0.9h38.7c4.7,0,8.8,1.7,12.2,5
		c3.5,3.3,5.2,7.1,5.2,11.2v26c0,4.1-1.7,7.7-5.2,11c-3.5,3.3-7.6,5-12.2,5h-54.1C161.5,142.9,159.7,141.1,159.7,138.9z"/>
	<path class="st4" d="M248.7,160.5l0.1-85.9c0-1.7,1.3-3,3-3h53.2c4.3,0,8.1,1.5,11.3,4.4c3.6,3.3,5.5,8.1,5.5,13.1l0,37.3
		c0,4.7-1.6,8.6-4.9,11.9c-3.3,3.3-7.2,5-11.8,5h-25.4c-2.2,0-4-1.8-4-4v-9.9c0-2.2,1.8-4,4-4h23.1c0.5,0,0.9-0.4,0.9-0.9V90.5
		c0-0.5-0.4-0.9-0.9-0.9h-35.1c-0.5,0-0.9,0.4-0.9,0.9l0,69.9H248.7z"/>
	<path class="st4" d="M336,126.2V88.3c0-4.8,1.4-8.9,4.2-12c2.8-3.2,6.6-4.8,11.5-4.8H393c4,0,7.6,1.7,10.8,5
		c3.2,3.3,4.8,7.2,4.8,11.8v27.1c0,2.2-1.8,4-4,4h-36.8c-2.2,0-4-1.8-4-4v-9.9c0-2.2,1.8-4,4-4h21.4c0.5,0,0.9-0.4,0.9-0.9V90.3
		c0-0.5-0.4-0.9-0.9-0.9h-33.9c-0.5,0-0.9,0.4-0.9,0.9v34c0,0.5,0.4,0.9,0.9,0.9h49.3c2.2,0,4,1.8,4,4v9.9c0,2.2-1.8,4-4,4h-53
		c-4.9,0-8.7-1.6-11.5-4.8C337.4,135,336,131,336,126.2z"/>
	<path class="st4" d="M421.8,126.2V88.3c0-4.6,1.6-8.5,4.8-11.8c3.2-3.3,6.7-5,10.7-5h36.2c2.2,0,4,1.8,4,4v9.9c0,2.2-1.8,4-4,4
		h-32.2c-0.5,0-0.9,0.4-0.9,0.9v34c0,0.5,0.4,0.9,0.9,0.9h32.2c2.2,0,4,1.8,4,4v9.9c0,2.2-1.8,4-4,4h-36.2c-3.9,0-7.5-1.7-10.7-5
		C423.4,134.7,421.8,130.7,421.8,126.2z"/>
	<path class="st4" d="M490,127.2V52.8c0-2.2,1.8-4,4-4h9.9c2.2,0,4,1.8,4,4v18.7c0,0.5,0.4,0.9,0.9,0.9h20c2.2,0,4,1.8,4,4v9.9
		c0,2.2-1.8,4-4,4h-20c-0.5,0-0.9,0.4-0.9,0.9v34c0,0.5,0.4,0.9,0.9,0.9h20c2.2,0,4,1.8,4,4v9.9c0,2.2-1.8,4-4,4h-23.3
		c-3.9,0-7.4-1.7-10.6-5C491.6,135.7,490,131.7,490,127.2z"/>
	<path class="st4" d="M545.4,140.1V76.5c0-2.2,1.8-4,4-4l51.5,0c5.3,0,10.4,2.2,13.7,6.2c2.5,3,3.7,6.5,3.7,10.6v10.2
		c0,2.2-1.8,4-4,4h-10.1c-2.2,0-4-1.8-4-4v-8.2c0-0.5-0.4-0.9-0.9-0.9h-35.1c-0.5,0-0.9,0.4-0.9,0.9v48.8c0,2.2-1.8,4-4,4h-9.9
		C547.2,144.1,545.4,142.3,545.4,140.1z"/>
	<path class="st4" d="M632.6,127.2v-13c0-3.9,1.6-7.5,4.8-10.7c3.2-3.2,6.8-4.8,10.6-4.8h25.4c2.2,0,4,1.8,4,4v9.9c0,2.2-1.8,4-4,4
		H652c-0.5,0-0.9,0.4-0.9,0.9v7.7c0,0.5,0.4,0.9,0.9,0.9h33.9c0.5,0,0.9-0.4,0.9-0.9v-34c0-0.5-0.4-0.9-0.9-0.9h-49.3
		c-2.2,0-4-1.8-4-4v-9.9c0-2.2,1.8-4,4-4h53c4,0,7.6,1.7,10.8,5c3.2,3.3,4.8,7.3,4.8,11.8v50.8c0,2.2-1.8,4-4,4h-53
		c-4,0-7.6-1.7-10.8-5C634.2,135.7,632.6,131.8,632.6,127.2z"/>
	<path class="st4" d="M717.2,140.1V52.8c0-2.2,1.8-4,4-4h10.4c2.2,0,4,1.8,4,4v87.3c0,2.2-1.8,4-4,4h-10.4
		C719,144.1,717.2,142.3,717.2,140.1z"/>
</g>
<g>
	<g>
		<path class="st4" d="M605.8,157.9h2.3c1.7,0,3.2,1.1,3.8,2.6l7.6,20.9l7.5-20.9c0.6-1.6,2.1-2.6,3.8-2.6h2.3
			c2.8,0,4.7,2.8,3.8,5.4l-12.1,33.3c-0.6,1.6-2.1,2.6-3.8,2.6h-3c-1.7,0-3.2-1.1-3.8-2.6L602,163.3
			C601.1,160.7,603,157.9,605.8,157.9z"/>
		<path class="st4" d="M644.3,211.1V162c0-2.2,1.8-4,4-4h28.4c2.8,0,5.1,1,7,3.1c1.7,1.8,2.6,4.3,2.6,6.8v21.5c0,2.5-0.9,5-2.6,6.8
			c-1.9,2-4.3,3.1-7,3.1h-12.9c-2.2,0-4-1.8-4-4V193c0-2.2,1.8-4,4-4h12.2v-20.6h-21.3v42.7c0,2.2-1.8,4-4,4h-2.3
			C646.1,215.1,644.3,213.3,644.3,211.1z"/>
		<path class="st4" d="M694.6,195.2v-33.3c0-2.2,1.8-4,4-4h28.8c2.8,0,5,0.9,6.6,2.8c1.6,1.8,2.4,4.2,2.4,6.9v27.6c0,2.2-1.8,4-4,4
			h-2.6c-2.2,0-4-1.8-4-4v-27h-20.6v27c0,2.2-1.8,4-4,4h-2.6C696.4,199.2,694.6,197.4,694.6,195.2z"/>
	</g>
</g>
<g>
	<path class="st4" d="M278.7,190.7c-16.7,0-30-13.5-30-30.2h17.9c0,6.7,5.3,12.2,12,12.2V190.7z"/>
</g>
<path class="st4" d="M588.1,172.7l-309.4,0v18l309.4,0c3,0,5.4-2.4,5.4-5.4v-7.2C593.5,175.1,591.1,172.7,588.1,172.7z"/>
</svg>
